PathFileType	4	(X/Y/Z)	6_coords_data.trc
DataRate	CameraRate	NumFrames	NumMarkers	Units	OrigDataRate	OrigDataStartFrame	OrigNumFrames
30.0	30.0	7	21	m	30.0	11	82
Frame#	Time	THUMB_TIP	THUMB_IP	THUMB_MCP	THUMB_CMC	INDEX_TIP	INDEX_DIP	INDEX_PIP	INDEX_MCP	MIDDLE_TIP	MIDDLE_DIP	MIDDLE_PIP	MIDDLE_MCP	RING_TIP	RING_DIP	RING_PIP	RING_MCP	PINKY_TIP	PINKY_DIP	PINKY_PIP	PINKY_MCP	WRIST
X1	Y1	Z1	X2	Y2	Z2	X3	Y3	Z3	X4	Y4	Z4	X5	Y5	Z5	X6	Y6	Z6	X7	Y7	Z7	X8	Y8	Z8	X9	Y9	Z9	X10	Y10	Z10	X11	Y11	Z11	X12	Y12	Z12	X13	Y13	Z13	X14	Y14	Z14	X15	Y15	Z15	X16	Y16	Z16	X17	Y17	Z17	X18	Y18	Z18	X19	Y19	Z19	X20	Y20	Z20	X21	Y21	Z21
10	0.3333333333333333	0.012799799919128418	-0.12080899810791015	0.9985759887695312	0.014286800384521485	-0.09538289642333984	1.0125900268554688	0.005676599979400634	-0.07371820068359375	1.03427001953125	0.002459029912948608	-0.03756869888305664	1.0477900390625	0.012432000160217286	-0.04762459945678711	1.0196799926757814	0.028809099197387694	-0.0487577018737793	1.0090800170898437	0.03120159912109375	-0.05578900146484375	0.9849450073242187	-0.00969470977783203	-0.05577510070800781	0.99072802734375	0.016574100494384767	-0.03299259948730469	1.02222998046875	0.02672610092163086	-0.03112380027770996	1.0136699829101563	0.0327671012878418	-0.033662899017333985	0.9849439697265625	-0.012214599609375	-0.03187929916381836	0.9827329711914062	0.011742500305175782	-0.015584799766540527	1.0238699951171875	0.024298200607299803	-0.013767900466918946	1.0147999877929688	0.03278269958496094	-0.012915200233459472	0.9878660278320313	-0.00933590030670166	-0.00748252010345459	0.9843590087890625	0.009909259796142577	0.001227149963378906	1.0213699951171875	0.024724700927734374	0.002021660089492798	1.0122100219726562	0.028097200393676757	0.0060467801094055175	0.9924739990234375	-0.002860009908676147	0.012757699966430664	0.9922119750976562	-0.018378400802612306	-0.007957389831542969	1.065260009765625
11	0.36666666666666664	0.013081199645996093	-0.12075399780273438	0.9985479736328124	0.01451729965209961	-0.0953375015258789	1.0125900268554688	0.00578980016708374	-0.07361979675292969	1.03431005859375	0.002568459987640381	-0.03750650024414062	1.04777001953125	0.01246280002593994	-0.047563701629638674	1.0193699951171875	0.028873699188232422	-0.04869969940185547	1.009030029296875	0.0312106990814209	-0.05576050186157227	0.9848389892578125	-0.009541060447692871	-0.05571770095825195	0.990635009765625	0.016619400024414064	-0.03293569946289063	1.0225700073242188	0.02692230033874512	-0.030995100021362305	1.0138200073242187	0.032885101318359374	-0.033620601654052736	0.984989990234375	-0.012094499588012696	-0.03183419990539551	0.9826220092773438	0.011539899826049804	-0.015440699577331542	1.0238800048828125	0.024472299575805663	-0.013760800361633302	1.014510009765625	0.032875301361083985	-0.012882399559020995	0.9878060302734375	-0.009246279716491699	-0.007429790019989013	0.984447021484375	0.00992891025543213	0.001244560003280639	1.0211900024414062	0.024837299346923827	0.002027070045471191	1.01222998046875	0.028189800262451173	0.006075930118560791	0.9924609985351562	-0.002838510036468506	0.012793100357055665	0.9922349853515625	-0.018308399200439453	-0.007980390071868897	1.065219970703125
12	0.4	0.013399499893188477	-0.12076699829101563	0.998593017578125	0.014775500297546387	-0.09542500305175781	1.0126099853515624	0.006015550136566162	-0.07376339721679688	1.03431005859375	0.0025142500400543214	-0.03750350189208984	1.0478199462890625	0.012795499801635742	-0.04760060119628906	1.019719970703125	0.029022699356079103	-0.04878889846801758	1.0089199829101563	0.031451499938964844	-0.055720401763916017	0.98502001953125	-0.009225910186767577	-0.05580239868164062	0.9906229858398438	0.01661440086364746	-0.03303900146484375	1.0225499877929687	0.026940500259399414	-0.03109309959411621	1.013760009765625	0.03281610107421875	-0.03380899810791015	0.9846790161132812	-0.011999099731445313	-0.031917900085449216	0.9826309814453125	0.011738800048828124	-0.015524900436401368	1.0236599731445313	0.024458200454711913	-0.013862000465393067	1.0145800170898438	0.032965999603271484	-0.012964699745178223	0.9877659912109376	-0.009126600265502929	-0.0075171799659729	0.984458984375	0.009860879898071289	0.00116398000717163	1.0210700073242187	0.024928699493408202	0.001963600039482116	1.0121500244140624	0.028259700775146484	0.006019820213317871	0.992739990234375	-0.002743580102920532	0.01273069953918457	0.9922009887695312	-0.018177900314331055	-0.00799356985092163	1.065280029296875
13	0.43333333333333335	0.013562199592590331	-0.12074500274658204	0.9985050048828125	0.01489009952545166	-0.09535880279541016	1.0125999755859374	0.006113820075988769	-0.07376260375976562	1.034280029296875	0.002708509922027588	-0.03758700180053711	1.04775	0.012808899879455566	-0.047589298248291015	1.02022998046875	0.02910260009765625	-0.04883140182495117	1.0089400024414064	0.03140449905395508	-0.055925800323486326	0.9848049926757813	-0.009451600074768066	-0.05579560089111328	0.9906669921875	0.016816900253295897	-0.033052898406982424	1.022489990234375	0.027108600616455078	-0.03114430046081543	1.0137100219726562	0.033034698486328125	-0.03378950119018555	0.9848930053710937	-0.011875100135803222	-0.03198310089111328	0.9825369873046875	0.012113499641418456	-0.015550200462341308	1.02372998046875	0.024637199401855468	-0.01391629981994629	1.01447998046875	0.03307659912109375	-0.012994000434875488	0.9878309936523437	-0.008980910301208496	-0.007536139965057373	0.9844249877929687	0.010202899932861328	0.001174780011177063	1.0211400146484375	0.024885499954223633	0.001793480038642883	1.011510009765625	0.028415300369262694	0.005907730102539062	0.9924210205078124	-0.0024659700393676763	0.012643300056457519	0.9920490112304687	-0.01806660079956055	-0.007947969913482665	1.065280029296875
14	0.4666666666666667	0.013834500312805175	-0.12064600372314453	0.9984819946289063	0.015152500152587891	-0.095306396484375	1.0125	0.006302199840545654	-0.07360639953613281	1.03427001953125	0.002868220090866089	-0.037482799530029295	1.047719970703125	0.012941399574279784	-0.0475885009765625	1.0197000122070312	0.029390199661254883	-0.04883359909057617	1.0087999877929688	0.03165769958496094	-0.05587189865112305	0.9847130126953125	-0.008905010223388672	-0.05578310012817383	0.990531982421875	0.017061100006103516	-0.03306259918212891	1.0221400146484374	0.02734860038757324	-0.031153900146484375	1.0136799926757813	0.033075401306152344	-0.033861099243164064	0.9847119750976563	-0.01173680019378662	-0.03194759941101074	0.9825360107421875	0.012178899765014649	-0.015524100303649903	1.0238400268554688	0.024862300872802733	-0.013880399703979493	1.0145	0.033281700134277344	-0.012973999977111817	0.9878510131835937	-0.008769209861755372	-0.007522960186004638	0.984416015625	0.010424599647521973	0.00115116000175476	1.02125	0.025049699783325195	0.0018251500129699701	1.0115599975585938	0.02860370063781738	0.0059189400672912595	0.99247802734375	-0.0023623800277709963	0.012737500190734862	0.9922689819335937	-0.01788909912109375	-0.007981219768524169	1.0652099609375
15	0.5	0.014285300254821777	-0.12056099700927735	0.9984970092773438	0.015481499671936036	-0.09520040130615234	1.0125700073242188	0.006560629844665528	-0.07364600372314453	1.03431005859375	0.0030453600883483876	-0.03747689819335937	1.047719970703125	0.013216600418090821	-0.047592098236083985	1.0197100219726563	0.02950849914550781	-0.04878900146484375	1.0088099975585938	0.03180690002441406	-0.055858600616455076	0.9846339721679688	-0.008837249755859375	-0.055777198791503904	0.9905809936523438	0.017270099639892577	-0.03303010177612305	1.022280029296875	0.02741270065307617	-0.031194000244140624	1.0135999755859375	0.033287101745605466	-0.033839599609375	0.9847869873046875	-0.011438300132751465	-0.03189929962158203	0.9825430297851563	0.012381699562072754	-0.01552079963684082	1.023780029296875	0.025015199661254883	-0.013845899581909179	1.0146900024414063	0.033450599670410155	-0.012979599952697754	0.987926025390625	-0.008635210037231446	-0.007459869861602783	0.9844420166015625	0.010435000419616699	0.001228710055351257	1.0212999877929687	0.02532550048828125	0.001905900001525879	1.0121199951171875	0.02875670051574707	0.005916959762573242	0.992573974609375	-0.002231120109558105	0.01275	0.9922340087890625	-0.017695199966430663	-0.007957310199737548	1.065300048828125
16	0.5333333333333333	0.01430900001525879	-0.1205	0.9984520263671876	0.01552340030670166	-0.09511910247802734	1.0125399780273439	0.006582890033721924	-0.07354010009765626	1.0343499755859376	0.00307433009147644	-0.037382701873779296	1.04768994140625	0.013145000457763671	-0.04747060012817383	1.0196599731445313	0.029442699432373046	-0.04876150131225586	1.0088800048828126	0.03188559913635254	-0.05577870178222656	0.9848200073242187	-0.00901669979095459	-0.055634700775146484	0.9906619873046875	0.017238500595092774	-0.032943099975585935	1.022469970703125	0.027515100479125976	-0.03106999969482422	1.0136699829101563	0.03309859848022461	-0.03389820098876953	0.9843759765625	-0.011466400146484375	-0.03177680015563965	0.9826580200195313	0.012371199607849121	-0.015379400253295898	1.0239400024414063	0.02506019973754883	-0.01380049991607666	1.014530029296875	0.03344150161743164	-0.012944199562072755	0.9877349853515625	-0.008627039909362793	-0.007395559787750244	0.984447021484375	0.01056820011138916	0.001278900027275085	1.0212000122070313	0.025494300842285156	0.002046560049057007	1.0123599853515626	0.02882859992980957	0.0060298900604248045	0.992780029296875	-0.002069540023803711	0.012796500205993652	0.9921290283203125	-0.017626100540161133	-0.007857069969177247	1.0653699951171876
